<?xml version="1.0" encoding="UTF-8"?>
<svg xmlns="http://www.w3.org/2000/svg" width="1588" height="784" viewBox="0 0 1588 784" font-family="Inter, system-ui, sans-serif">
  <defs>
        <marker id="arrow-end" markerWidth="8" markerHeight="8" refX="6" refY="4" orient="auto" markerUnits="strokeWidth">
            <path d="M1,1 L6,4 L1,7 z" fill="context-stroke" />
        </marker>
        <marker id="arrow-start" markerWidth="8" markerHeight="8" refX="2" refY="4" orient="auto" markerUnits="strokeWidth">
            <path d="M7,1 L2,4 L7,7 z" fill="context-stroke" />
        </marker>
  </defs>
  <rect width="100%" height="100%" fill="white" />
  <g class="subgraph" data-id="SystemBoundary">
    <rect x="1272.0" y="80.0" width="236.0" height="192.0" rx="16" ry="16" fill="#edf2f7" fill-opacity="0.7" stroke="#a0aec0" stroke-width="1.5" />
    <text x="1292.0" y="100.0" fill="#2d3748" font-size="14" font-weight="600" text-anchor="start" dominant-baseline="hanging">&quot; System Context &quot;</text>
  </g>
  <polyline points="600.0,384.0 556.0,428.0 556.0,434.0 556.0,440.0 599.3,483.3" fill="none" stroke="#2d3748" stroke-width="2" marker-end="url(#arrow-end)" />
  <g pointer-events="none">
    <rect x="470.3" y="404.0" width="171.4" height="60.0" rx="6" ry="6" fill="white" fill-opacity="0.96" stroke="#2d3748" stroke-width="1" />
    <text x="556.0" fill="#2d3748" font-size="13" text-anchor="middle">
      <tspan x="556.0" y="418.0" dominant-baseline="middle">Views spending data,</tspan>
      <tspan x="556.0" y="434.0" dominant-baseline="middle">sets/updates budgets,</tspan>
      <tspan x="556.0" y="450.0" dominant-baseline="middle">analyzes charts</tspan>
    </text>
  </g>
  <polyline points="660.0,484.0 704.0,440.0 704.0,434.0 704.0,428.0 660.7,384.7" fill="none" stroke="#2d3748" stroke-width="2" marker-end="url(#arrow-end)" />
  <g pointer-events="none">
    <rect x="607.2" y="404.0" width="193.6" height="60.0" rx="6" ry="6" fill="white" fill-opacity="0.96" stroke="#2d3748" stroke-width="1" />
    <text x="704.0" fill="#2d3748" font-size="13" text-anchor="middle">
      <tspan x="704.0" y="418.0" dominant-baseline="middle">Displays transactions,</tspan>
      <tspan x="704.0" y="434.0" dominant-baseline="middle">shows budget status,</tspan>
      <tspan x="704.0" y="450.0" dominant-baseline="middle">provides visual insights</tspan>
    </text>
  </g>
  <line x1="645.0" y1="544.0" x2="694.6" y2="643.1" stroke="#2d3748" stroke-width="2" marker-end="url(#arrow-end)" />
  <g pointer-events="none">
    <rect x="598.9" y="561.6" width="141.8" height="44.0" rx="6" ry="6" fill="white" fill-opacity="0.96" stroke="#2d3748" stroke-width="1" />
    <text x="669.8" fill="#2d3748" font-size="13" text-anchor="middle">
      <tspan x="669.8" y="575.6" dominant-baseline="middle">Reads transaction</tspan>
      <tspan x="669.8" y="591.6" dominant-baseline="middle">data at startup</tspan>
    </text>
  </g>
  <line x1="615.0" y1="544.0" x2="565.4" y2="643.1" stroke="#2d3748" stroke-width="2" marker-end="url(#arrow-end)" />
  <g pointer-events="none">
    <rect x="541.5" y="569.6" width="97.4" height="28.0" rx="6" ry="6" fill="white" fill-opacity="0.96" stroke="#2d3748" stroke-width="1" />
    <text x="590.2" y="583.6" fill="#2d3748" font-size="13" text-anchor="middle" dominant-baseline="middle" xml:space="preserve">Runs within</text>
  </g>
  <polyline points="583.3,384.0 511.6,430.0 496.4,490.6 481.3,551.2 532.7,643.1" fill="none" stroke="#2d3748" stroke-width="2" marker-end="url(#arrow-end)" />
  <g pointer-events="none">
    <rect x="444.0" y="476.6" width="104.8" height="28.0" rx="6" ry="6" fill="white" fill-opacity="0.96" stroke="#2d3748" stroke-width="1" />
    <text x="496.4" y="490.6" fill="#2d3748" font-size="13" text-anchor="middle" dominant-baseline="middle" xml:space="preserve">Accesses via</text>
  </g>
  <rect x="480.0" y="644.0" width="140.0" height="60.0" rx="8" ry="8" fill="#fde68a" stroke="#2d3748" stroke-width="2" />
  <text x="550.0" fill="#1a202c" font-size="14" text-anchor="middle">
    <tspan x="550.0" y="634.0" dominant-baseline="middle">&quot;🌐 Web Browser</tspan>
    <tspan x="550.0" y="650.0" dominant-baseline="middle">[Software System]</tspan>
    <tspan x="550.0" y="666.0" dominant-baseline="middle"> </tspan>
    <tspan x="550.0" y="682.0" dominant-baseline="middle">Chrome, Firefox, Safari, or Edge</tspan>
    <tspan x="550.0" y="698.0" dominant-baseline="middle">that renders the React application</tspan>
    <tspan x="550.0" y="714.0" dominant-baseline="middle">and provides runtime environment&quot;</tspan>
  </text>
  <rect x="1320.0" y="164.0" width="140.0" height="60.0" rx="8" ry="8" fill="#fde68a" stroke="#2d3748" stroke-width="2" />
  <text x="1390.0" fill="#1a202c" font-size="14" text-anchor="middle">
    <tspan x="1390.0" y="170.0" dominant-baseline="middle">&quot;ℹ️ Context Level (C4 L1)</tspan>
    <tspan x="1390.0" y="186.0" dominant-baseline="middle">Shows the Budget Dashboard system</tspan>
    <tspan x="1390.0" y="202.0" dominant-baseline="middle">in its environment with users</tspan>
    <tspan x="1390.0" y="218.0" dominant-baseline="middle">and supporting systems&quot;</tspan>
  </text>
  <rect x="400.0" y="164.0" width="140.0" height="60.0" rx="8" ry="8" fill="#fde68a" stroke="#2d3748" stroke-width="2" />
  <text x="470.0" y="194.0" fill="#1a202c" font-size="14" text-anchor="middle" dominant-baseline="middle">style Browser fill:#999999,stroke:#6b6b6b,stroke-width:2px,color:#fff</text>
  <rect x="640.0" y="644.0" width="140.0" height="60.0" rx="8" ry="8" fill="#fde68a" stroke="#2d3748" stroke-width="2" />
  <text x="710.0" fill="#1a202c" font-size="14" text-anchor="middle">
    <tspan x="710.0" y="626.0" dominant-baseline="middle">&quot;📄 Transaction Data File</tspan>
    <tspan x="710.0" y="642.0" dominant-baseline="middle">[Data Store]</tspan>
    <tspan x="710.0" y="658.0" dominant-baseline="middle"> </tspan>
    <tspan x="710.0" y="674.0" dominant-baseline="middle">Local JSON file containing</tspan>
    <tspan x="710.0" y="690.0" dominant-baseline="middle">sample credit card transactions</tspan>
    <tspan x="710.0" y="706.0" dominant-baseline="middle">with MCC codes, amounts,</tspan>
    <tspan x="710.0" y="722.0" dominant-baseline="middle">and merchant details&quot;</tspan>
  </text>
  <rect x="80.0" y="164.0" width="140.0" height="60.0" rx="8" ry="8" fill="#fde68a" stroke="#2d3748" stroke-width="2" />
  <text x="150.0" y="194.0" fill="#1a202c" font-size="14" text-anchor="middle" dominant-baseline="middle">style User fill:#08427b,stroke:#052e56,stroke-width:2px,color:#fff</text>
  <rect x="560.0" y="484.0" width="140.0" height="60.0" rx="8" ry="8" fill="#fde68a" stroke="#2d3748" stroke-width="2" />
  <text x="630.0" fill="#1a202c" font-size="14" text-anchor="middle">
    <tspan x="630.0" y="458.0" dominant-baseline="middle">&quot;📊 Budget Dashboard Application</tspan>
    <tspan x="630.0" y="474.0" dominant-baseline="middle">[Software System]</tspan>
    <tspan x="630.0" y="490.0" dominant-baseline="middle"> </tspan>
    <tspan x="630.0" y="506.0" dominant-baseline="middle">Web-based personal finance dashboard</tspan>
    <tspan x="630.0" y="522.0" dominant-baseline="middle">that displays transaction history,</tspan>
    <tspan x="630.0" y="538.0" dominant-baseline="middle">allows budget configuration per category,</tspan>
    <tspan x="630.0" y="554.0" dominant-baseline="middle">and provides visual spending analytics</tspan>
    <tspan x="630.0" y="570.0" dominant-baseline="middle">with charts and comparisons&quot;</tspan>
  </text>
  <rect x="560.0" y="164.0" width="140.0" height="60.0" rx="8" ry="8" fill="#fde68a" stroke="#2d3748" stroke-width="2" />
  <text x="630.0" y="194.0" fill="#1a202c" font-size="14" text-anchor="middle" dominant-baseline="middle">style DataFile fill:#999999,stroke:#6b6b6b,stroke-width:2px,color:#fff</text>
  <rect x="880.0" y="164.0" width="140.0" height="60.0" rx="8" ry="8" fill="#fde68a" stroke="#2d3748" stroke-width="2" />
  <text x="950.0" y="194.0" fill="#1a202c" font-size="14" text-anchor="middle" dominant-baseline="middle">style SystemBoundary fill:#ffffff,stroke:#cccccc,stroke-width:1px,stroke-dasharray: 5 5</text>
  <rect x="1040.0" y="164.0" width="140.0" height="60.0" rx="8" ry="8" fill="#fde68a" stroke="#2d3748" stroke-width="2" />
  <text x="1110.0" y="194.0" fill="#1a202c" font-size="14" text-anchor="middle" dominant-baseline="middle">style Note1 fill:#ffffcc,stroke:#d9d9d9,stroke-width:1px</text>
  <rect x="560.0" y="324.0" width="140.0" height="60.0" rx="8" ry="8" fill="#fde68a" stroke="#2d3748" stroke-width="2" />
  <text x="630.0" fill="#1a202c" font-size="14" text-anchor="middle">
    <tspan x="630.0" y="306.0" dominant-baseline="middle">&quot;👤 Personal Finance User</tspan>
    <tspan x="630.0" y="322.0" dominant-baseline="middle">[Person]</tspan>
    <tspan x="630.0" y="338.0" dominant-baseline="middle"> </tspan>
    <tspan x="630.0" y="354.0" dominant-baseline="middle">A person who wants to track their</tspan>
    <tspan x="630.0" y="370.0" dominant-baseline="middle">credit card expenses, set budgets</tspan>
    <tspan x="630.0" y="386.0" dominant-baseline="middle">per category, and analyze</tspan>
    <tspan x="630.0" y="402.0" dominant-baseline="middle">spending patterns&quot;</tspan>
  </text>
  <rect x="240.0" y="164.0" width="140.0" height="60.0" rx="8" ry="8" fill="#fde68a" stroke="#2d3748" stroke-width="2" />
  <text x="310.0" y="194.0" fill="#1a202c" font-size="14" text-anchor="middle" dominant-baseline="middle">style System fill:#1168bd,stroke:#0b4884,stroke-width:3px,color:#fff</text>
</svg>
